<svg width="87" height="26" viewBox="0 0 87 26" fill="none" xmlns="http://www.w3.org/2000/svg">
<path d="M25.84 23.84V25H15.24V23.84L17.2 23.92C18 24 18.4 23.68 18.4 22.96C18.4 22.5067 18.2667 21.9867 18 21.4L16.04 16.68H6.72L4.88 21.16C4.50667 21.9867 4.32 22.6533 4.32 23.16C4.32 23.72 4.61333 23.9867 5.2 23.96L7.12 23.84V25H0.2V23.84L1.24 23.92H1.4C1.93333 23.92 2.37333 23.6667 2.72 23.16C3.12 22.5733 3.52 21.8 3.92 20.84L12.28 0.719998H13.32L21.76 20.92C22.1333 21.88 22.52 22.64 22.92 23.2C23.2933 23.68 23.76 23.92 24.32 23.92H24.52L25.84 23.84ZM7.2 15.56H15.56L11.36 5.48L7.2 15.56ZM49.7034 1.12V2.32L48.1434 2.24H48.0634C47.6101 2.24 47.3834 2.52 47.3834 3.08V25.24H46.1834L30.5434 4V23.04C30.5434 23.6267 30.7968 23.92 31.3034 23.92L33.2634 23.84V25H26.8234V23.84L28.3834 23.92C28.9168 23.92 29.1834 23.6267 29.1834 23.04V3.08C29.1834 2.84 29.1034 2.64 28.9434 2.48C28.8101 2.29333 28.6234 2.21333 28.3834 2.24L26.8234 2.32V1.12H33.0234L46.0234 18.8V3.04C46.0234 2.50667 45.7968 2.24 45.3434 2.24H45.2234L43.2634 2.32V1.12H49.7034ZM53.5078 23.84L55.0678 23.92C55.5745 23.92 55.8278 23.6267 55.8278 23.04V3.08C55.8278 2.84 55.7611 2.64 55.6278 2.48C55.4945 2.29333 55.3078 2.21333 55.0678 2.24L53.5078 2.32V1.12H61.9078V2.32L60.3478 2.24H60.2678C60.0545 2.24 59.8811 2.32 59.7478 2.48C59.6145 2.64 59.5478 2.84 59.5478 3.08V23.04C59.5478 23.6267 59.8145 23.92 60.3478 23.92L61.9078 23.84V25H53.5078V23.84ZM65.8906 23.84L67.4506 23.92C67.9573 23.92 68.2106 23.6267 68.2106 23.04V3.08C68.2106 2.84 68.1306 2.64 67.9706 2.48C67.8373 2.29333 67.624 2.21333 67.3306 2.24L65.8906 2.32V1.12H74.8906C77.8506 1.12 79.9973 1.62667 81.3306 2.64C82.664 3.62667 83.3306 5.24 83.3306 7.48C83.3306 8.84 82.8773 10.0267 81.9706 11.04C81.0906 12.0267 79.9173 12.72 78.4506 13.12C79.2773 13.12 80.104 13.4 80.9306 13.96C81.784 14.52 82.4906 15.3333 83.0506 16.4C83.6106 17.4667 83.8906 18.7067 83.8906 20.12C83.8906 20.92 83.984 21.7333 84.1706 22.56C84.384 23.3867 84.6773 23.8267 85.0506 23.88C85.2106 23.9333 85.3973 23.96 85.6106 23.96C85.9306 23.96 86.184 23.9067 86.3706 23.8V25H80.9306C80.6106 24.3333 80.424 23.4533 80.3706 22.36C80.3173 21.6667 80.2906 21.16 80.2906 20.84V19.52C80.2906 17.52 79.6373 16.0267 78.3306 15.04C77.0506 14.0533 75.4773 13.56 73.6106 13.56H71.9306V23.04C71.9306 23.6267 72.1973 23.92 72.7306 23.92L74.6906 23.84V25H65.8906V23.84ZM75.6506 12.48C76.8773 12.48 77.8373 12.04 78.5306 11.16C79.224 10.28 79.5706 9.05333 79.5706 7.48C79.5706 5.64 79.184 4.30667 78.4106 3.48C77.664 2.65333 76.4906 2.24 74.8906 2.24H72.4106C72.0906 2.24 71.9306 2.37333 71.9306 2.64V12.48H75.6506Z" fill="black"/>
</svg>
