<svg fill="none" xmlns="http://www.w3.org/2000/svg" viewBox="0 0 24 24" id="instagram-brands"><path d="M12.003 5.848A6.142 6.142 0 0 0 5.85 12a6.142 6.142 0 0 0 6.152 6.152A6.142 6.142 0 0 0 18.155 12a6.142 6.142 0 0 0-6.152-6.152Zm0 10.152c-2.2 0-4-1.794-4-4s1.794-4 4-4 4 1.794 4 4-1.8 4-4 4ZM19.84 5.596c0 .798-.642 1.435-1.435 1.435a1.435 1.435 0 1 1 1.435-1.435Zm4.075 1.457c-.091-1.922-.53-3.625-1.939-5.028C20.575.622 18.872.183 16.95.087c-1.981-.112-7.919-.112-9.9 0-1.917.091-3.62.53-5.027 1.933C.614 3.423.18 5.125.084 7.047c-.112 1.981-.112 7.92 0 9.9.091 1.922.53 3.625 1.939 5.028 1.408 1.403 3.105 1.842 5.027 1.938 1.981.112 7.919.112 9.9 0 1.922-.091 3.625-.53 5.027-1.938 1.403-1.403 1.842-3.106 1.939-5.028.112-1.98.112-7.913 0-9.894Zm-2.56 12.02a4.049 4.049 0 0 1-2.28 2.28c-1.58.627-5.328.483-7.073.483-1.746 0-5.499.139-7.073-.482a4.05 4.05 0 0 1-2.281-2.281c-.626-1.58-.482-5.328-.482-7.073s-.14-5.499.482-7.073a4.05 4.05 0 0 1 2.28-2.28c1.58-.627 5.328-.483 7.074-.483 1.745 0 5.498-.139 7.073.482a4.05 4.05 0 0 1 2.28 2.281c.627 1.58.482 5.328.482 7.073s.145 5.499-.482 7.073Z" fill="currentColor"></path></svg>